<svg xmlns="http://www.w3.org/2000/svg" xmlns:xlink="http://www.w3.org/1999/xlink" viewBox="0,0,256,256" width="128px" height="128px"><g fill="#1c1c1c" fill-rule="nonzero" stroke="none" stroke-width="1" stroke-linecap="butt" stroke-linejoin="miter" stroke-miterlimit="10" stroke-dasharray="" stroke-dashoffset="0" font-family="none" font-weight="none" font-size="none" text-anchor="none" style="mix-blend-mode: normal"><path d="M0,256v-256h256v256z" id="bgRectangle"></path></g><g fill="#5c7cfa" fill-rule="nonzero" stroke="none" stroke-width="1" stroke-linecap="butt" stroke-linejoin="miter" stroke-miterlimit="10" stroke-dasharray="" stroke-dashoffset="0" font-family="none" font-weight="none" font-size="none" text-anchor="none" style="mix-blend-mode: normal"><g transform="scale(4,4)"><path d="M27.01953,7c-8.255,0 -15.207,2.326 -21,7c0,0 10.634,1.409 13,9c0,0 -13.918,2.516 -16,17c0,0 8.992,-3.594 15,1c0,0 -7.004,3.979 -7,17c0,0 8.47569,-2.97622 27.05469,-2.07422c0.066,0.006 0.13517,0.00477 0.20117,0.00977c0.412,0.021 0.82214,0.03945 1.24414,0.06445c-0.013,-0.004 -0.02411,-0.00967 -0.03711,-0.01367c0.111,0.002 0.21808,0.01367 0.33008,0.01367c5.646,0 11.22308,-2.45495 14.20508,-6.25195c1.651,-2.102 2.403,-4.4603 2.25,-6.9043c0.272,-0.065 0.54817,-0.14591 0.82617,-0.25391c2.361,-0.916 3.94311,-3.06674 3.53711,-4.80273c-0.408,-1.737 -2.65172,-2.39937 -5.01172,-1.48437c-0.942,0.365 -1.75019,0.93194 -2.36719,1.58594c-1.622,-0.459 -3.4053,0.22145 -5.2793,0.93945c-1.545,0.592 -3.14266,1.20313 -4.59766,1.20313c-3.737,0 -5.39636,-1.08861 -7.31836,-2.34961c-1.221,-0.801 -2.55205,-1.66541 -4.37305,-2.19141c-2.43,-12.54 6.65989,-19.16908 10.33789,-7.20508c1,3.253 2.056,6.71389 3,6.71289c1.43,-0.002 2.13517,-10.19112 7.57617,-9.95312c2.913,1.545 2.63987,6.21508 2.42188,9.95508c1.653,-2.479 1.93733,-4.96677 1.98633,-8.00977c0.005,0.004 0.00867,0.00677 0.01367,0.00977c-0.004,-0.022 -0.00772,-0.04245 -0.01172,-0.06445c0.008,-0.494 0.01172,-1.0023 0.01172,-1.5293l0.51758,-0.60156c4.301,-5.002 3.49794,-10.85066 3.46094,-11.09766l-0.17773,-1.20508l-1.15234,-0.39453c-1.818,-0.623 -4.51187,-0.57939 -7.04687,-0.15039c0.569,1.052 1.05087,2.41012 1.42188,3.82813c1.109,-0.14 2.17625,-0.19 3.03125,-0.125c-0.064,1.34 -0.42241,3.46411 -1.81641,5.53711c-0.191,-0.432 -0.39637,-0.84686 -0.60937,-1.25586c-0.064,-0.125 -0.13127,-0.24323 -0.19727,-0.36523c-0.184,-0.338 -0.37231,-0.67214 -0.57031,-0.99414c-0.048,-0.078 -0.09748,-0.15347 -0.14648,-0.23047c-0.211,-0.334 -0.43025,-0.65761 -0.65625,-0.97461c-0.06,-0.083 -0.11969,-0.16509 -0.17969,-0.24609c-0.217,-0.294 -0.44187,-0.58038 -0.67188,-0.85937c-1.136,-1.373 -2.32378,-2.45626 -3.42578,-3.32227c-0.005,0.002 -0.01062,0.00191 -0.01562,0.00391c-5.669,-4.329 -13.50362,-5.95312 -21.76562,-5.95312zM27.01953,12c0,0 6.00106,0.00073 9.41406,4.55273c-4.237,0.743 -7.22619,2.82427 -9.24219,5.94727c0,0 -2.67187,-5.948 -0.17187,-10.5zM36.92969,26.01758c-0.794,-0.22 -2.27091,1.60192 -2.75391,4.04492c-0.484,2.443 0.24997,4.69897 1.04297,4.91797c0.793,0.219 2.14491,-1.46325 2.62891,-3.90625c0.484,-2.443 -0.12597,-4.83864 -0.91797,-5.05664zM51.05469,28.01953c-0.827,-0.205 -2.36905,1.32584 -2.87305,3.58984c-0.505,2.264 0.2648,4.172 1.0918,4.375c0.828,0.203 2.20412,-1.53798 2.57812,-3.58398c0.417,-2.281 0.02913,-4.17786 -0.79687,-4.38086zM28.01953,39c2.752,0 4.1168,0.89439 5.8418,2.02539c2.042,1.339 4.58167,3.00586 9.51367,3.00586c2.195,0 4.2323,-0.77975 6.0293,-1.46875c0.85,-0.326 2.09367,-0.80117 2.63867,-0.82617c0.022,0.058 0.04817,0.14 0.07617,0.25c0.457,1.874 0.03795,3.65302 -1.24805,5.29102c-2.218,2.825 -6.66259,4.72266 -11.05859,4.72266c-7.054,0 -12.79297,-4.47275 -12.79297,-9.96875c0,-1.483 0.686,-2.87825 1,-3.03125zM33.01953,43c-1.414,0.474 -2.31841,1.805 -2.56641,3c2,3 5.56641,3 9.56641,3c-2.5,-0.83 -6,-3 -7,-6z"></path></g></g></svg>


